<svg width="24" height="24" viewBox="0 0 24 24" fill="none" stroke="currentColor" stroke-width="2" stroke-linecap="round" stroke-linejoin="round" xmlns="http://www.w3.org/2000/svg">
  <path d="M12 3c1-1 2-1 3-1a5 5 0 0 1 5 5c0 2-2 3-3 3"></path>
  <path d="M12 3c-1-1-2-1-3-1a5 5 0 0 0-5 5c0 2 2 3 3 3"></path>
  <path d="M7 10h10"></path>
  <path d="M12 10v10"></path>
  <path d="M16 19c1 1 2 2 3 2a5 5 0 0 0 5-5c0-3-2-3-3-3"></path>
  <path d="M8 19c-1 1-2 2-3 2a5 5 0 0 1-5-5c0-3 2-3 3-3"></path>
  <path d="M7 16h10"></path>
</svg>
